<svg width="67" height="66" viewBox="0 0 67 66" fill="none" xmlns="http://www.w3.org/2000/svg">
<path d="M67 33C67 51.2254 52.0015 66 33.5 66C14.9985 66 0 51.2254 0 33C0 14.7746 14.9985 0 33.5 0C52.0015 0 67 14.7746 67 33Z" fill="white"/>
<path d="M33.624 20.176C32.7627 20.176 32.0407 19.91 31.458 19.378C30.8753 18.8207 30.584 18.124 30.584 17.288C30.584 16.4267 30.8753 15.73 31.458 15.198C32.0407 14.666 32.7627 14.4 33.624 14.4C34.4853 14.4 35.2073 14.666 35.79 15.198C36.398 15.73 36.702 16.4267 36.702 17.288C36.702 18.124 36.398 18.8207 35.79 19.378C35.2073 19.91 34.4853 20.176 33.624 20.176ZM28 50.12C26.556 50.12 25.5173 49.8667 24.884 49.36C24.2507 48.8787 23.934 48.2453 23.934 47.46C23.934 46.7507 24.1873 46.1807 24.694 45.75C25.2007 45.3193 25.796 45.104 26.48 45.104C27.164 45.104 27.7847 45.2687 28.342 45.598C28.8993 45.9527 29.33 46.4973 29.634 47.232L30.014 48.068C30.1913 48.3467 30.394 48.4353 30.622 48.334C30.8753 48.258 31.002 47.8653 31.002 47.156V26.712C31.002 26.1293 30.8627 25.7113 30.584 25.458C30.3307 25.1793 29.9507 24.9893 29.444 24.888L28.874 24.812V24.432L35.98 22.19L36.436 22.57L36.322 27.966V38.53C36.322 40.1767 36.246 41.5573 36.094 42.672C35.9673 43.7867 35.7267 44.724 35.372 45.484C35.0427 46.2693 34.5613 46.9913 33.928 47.65C33.0413 48.5367 32.0787 49.17 31.04 49.55C30.0013 49.93 28.988 50.12 28 50.12Z" fill="#672626"/>
</svg>
